<svg width="24" height="24" viewBox="0 0 24 24" fill="none" xmlns="http://www.w3.org/2000/svg">
<path d="M8.49854 9.99927C8.49854 11.9331 10.0662 13.5007 12 13.5007V13.5007C13.9338 13.5007 15.5015 11.9331 15.5015 9.99927" stroke="#323232" stroke-width="1.5" stroke-linecap="round" stroke-linejoin="round"/>
<path d="M8.49854 6.998V6.4978C8.49854 4.56399 10.0662 2.99634 12 2.99634V2.99634C13.9338 2.99634 15.5015 4.56399 15.5015 6.4978V6.998" stroke="#323232" stroke-width="1.5" stroke-linecap="round" stroke-linejoin="round"/>
<path fill-rule="evenodd" clip-rule="evenodd" d="M6.4618 6.99805C5.40525 6.99805 4.53082 7.81958 4.46492 8.87407L4.00572 16.2212C3.92821 17.4615 4.36684 18.6787 5.21772 19.5844C6.06861 20.4901 7.25605 21.0039 8.49878 21.0039H15.5013C16.7441 21.0039 17.9315 20.4902 18.7824 19.5844C19.6333 18.6787 20.072 17.4615 19.9944 16.2212L19.5353 8.87407C19.4693 7.81958 18.5949 6.99805 17.5384 6.99805H6.4618Z" stroke="#323232" stroke-width="1.5" stroke-linecap="round" stroke-linejoin="round"/>
</svg>
